{
  "title": "Ant-Man.2015.CAM.XviD.AC3-The Muffin Stuffers",
  "uid": 12142976,
  "size": 1130309147,
  "categoryP": "video",
  "categoryS": "movies",
  "magnet": "?xt=urn:btih:299608117aa2af047db44310acc973e2257c52e9&amp;dn=Ant-Man.2015.CAM.XviD.AC3-The+Muffin+Stuffers&amp;tr=udp%3A%2F%2Ftracker.openbittorrent.com%3A80&amp;tr=udp%3A%2F%2Fopen.demonii.com%3A1337&amp;tr=udp%3A%2F%2Ftracker.coppersurfer.tk%3A6969&amp;tr=udp%3A%2F%2Fexodus.desync.com%3A6969",
  "seeders": 142,
  "leechers": 35,
  "uploader": "xxxlavalxxx",
  "files": 4,
  "time": 1437392998,
  "description": " &lt;a href=&quot;http://extraimago.com/image/16X&quot; rel=&quot;nofollow&quot; target=&quot;_NEW&quot;&gt;http://extraimago.com/image/16X&lt;/a&gt;\n &lt;a href=&quot;\nhttp://www.imdb.com/title/tt0478970/&quot; rel=&quot;nofollow&quot; target=&quot;_NEW&quot;&gt;\nhttp://www.imdb.com/title/tt0478970/&lt;/a&gt;\n\n\nArmed with a super-suit with the astonishing ability to shrink in scale but increase in strength, con-man Scott Lang must embrace his inner hero and help his mentor, Dr. Hank Pym, plan and pull off a heist that will save the world.\n\nDirector: Peyton Reed\nWriters: Edgar Wright (screenplay), Joe Cornish (screenplay)\nStars: Paul Rudd, Michael Douglas, Corey Stoll\nGenres: Action | Sci-Fi\nCountry: USA\nLanguage: English\n\n\nAnt-Man.2015.CAM.XviD.AC3-The Muffin Stuffers\n\nSource Used was HQCAM-MRG\n &lt;a href=&quot;\nhttp://www.imdb.com/title/tt0478970/&quot; rel=&quot;nofollow&quot; target=&quot;_NEW&quot;&gt;\nhttp://www.imdb.com/title/tt0478970/&lt;/a&gt;\n\nTHERE IS A BIT OF MOVEMENT AND THE AR WAS WRONG ON THE SOURCE I USED SO DID A RESIZE TO WHAT LOOKS OK. IT SEEMS FULL RUNTIME ALSO. NOT MUCH CAN BE DONE WITH THIS SOURCE.BUT THIS ONE IS A TAD BETTER, ITS NOT TOO DARK, ENJOY\n\nGeneral\nComplete name: Ant-Man.2015.CAM.XviD.AC3-The Muffin Stuffers.avi\nFormat: AVI\nFormat/Info: Audio Video Interleave\nFile size: 1.01 GiB\nDuration: 1h 42mn\nOverall bit rate: 1 414 Kbps\n\nVideo\nID: 0\nFormat: MPEG-4 Visual\nFormat profile: Advanced Simple@L5\nFormat settings, BVOP: 2\nFormat settings, QPel: No\nFormat settings, GMC: No warppoints\nFormat settings, Matrix: Default (H.263)\nMuxing mode: Packed bitstream\nCodec ID: XVID\nCodec ID/Hint: XviD\nDuration: 1h 42mn\nBit rate: 1 149 Kbps\nWidth: 684 pixels\nHeight: 278 pixels\nDisplay aspect ratio: 2.460\nFrame rate: 29.970 fps\nColor space: YUV\nChroma subsampling: 4:2:0\nBit depth: 8 bits\nScan type: Progressive\nCompression mode: Lossy\nBits/(Pixel*Frame): 0.202\nStream size: 840 MiB (81%)\nWriting library: XviD 64\n\nAudio\nID: 1\nFormat: AC-3\nFormat/Info: Audio Coding 3\nMode extension: CM (complete main)\nFormat settings, Endianness: Big\nCodec ID: 2000\nDuration: 1h 42mn\nBit rate mode: Constant\nBit rate: 256 Kbps\nChannel(s): 2 channels\nChannel positions: Front: L R\nSampling rate: 48.0 KHz\nCompression mode: Lossy\nStream size: 187 MiB (18%)\nAlignment: Aligned on interleaves\nInterleave, duration: 64 ms (1.92 video frames)\nInterleave, preload duration: 192 ms \n\n &lt;a href=&quot;\nhttp://extraimago.com/image/E7R&quot; rel=&quot;nofollow&quot; target=&quot;_NEW&quot;&gt;\nhttp://extraimago.com/image/E7R&lt;/a&gt; &lt;a href=&quot;\nhttp://extraimago.com/image/E7m&quot; rel=&quot;nofollow&quot; target=&quot;_NEW&quot;&gt;\nhttp://extraimago.com/image/E7m&lt;/a&gt; &lt;a href=&quot;\nhttp://extraimago.com/image/E7i&quot; rel=&quot;nofollow&quot; target=&quot;_NEW&quot;&gt;\nhttp://extraimago.com/image/E7i&lt;/a&gt; &lt;a href=&quot;\nhttp://extraimago.com/image/E7l&quot; rel=&quot;nofollow&quot; target=&quot;_NEW&quot;&gt;\nhttp://extraimago.com/image/E7l&lt;/a&gt; &lt;a href=&quot;\nhttp://extraimago.com/image/E7I&quot; rel=&quot;nofollow&quot; target=&quot;_NEW&quot;&gt;\nhttp://extraimago.com/image/E7I&lt;/a&gt; &lt;a href=&quot;\nhttp://extraimago.com/image/E7d&quot; rel=&quot;nofollow&quot; target=&quot;_NEW&quot;&gt;\nhttp://extraimago.com/image/E7d&lt;/a&gt; &lt;a href=&quot;\nhttp://extraimago.com/image/E7h&quot; rel=&quot;nofollow&quot; target=&quot;_NEW&quot;&gt;\nhttp://extraimago.com/image/E7h&lt;/a&gt; &lt;a href=&quot;\nhttp://extraimago.com/image/E7b&quot; rel=&quot;nofollow&quot; target=&quot;_NEW&quot;&gt;\nhttp://extraimago.com/image/E7b&lt;/a&gt;",
  "parsed": {
    "xt": "urn:btih:299608117aa2af047db44310acc973e2257c52e9",
    "dn": "Ant-Man.2015.CAM.XviD.AC3-The Muffin Stuffers",
    "tr": [
      "udp://exodus.desync.com:6969",
      "udp://open.demonii.com:1337",
      "udp://tracker.coppersurfer.tk:6969",
      "udp://tracker.openbittorrent.com:80"
    ],
    "infoHash": "299608117aa2af047db44310acc973e2257c52e9",
    "infoHashBuffer": {
      "type": "Buffer",
      "data": [
        41,
        150,
        8,
        17,
        122,
        162,
        175,
        4,
        125,
        180,
        67,
        16,
        172,
        201,
        115,
        226,
        37,
        124,
        82,
        233
      ]
    },
    "name": "Ant-Man.2015.CAM.XviD.AC3-The Muffin Stuffers",
    "announce": [
      "udp://exodus.desync.com:6969",
      "udp://open.demonii.com:1337",
      "udp://tracker.coppersurfer.tk:6969",
      "udp://tracker.openbittorrent.com:80"
    ],
    "urlList": []
  },
  "previous": 19,
  "peers": 17,
  "last_updated": "2016-12-26T19:43:52.342Z"
}